STARTFONT 2.1
FONT jis.jis7800.24
SIZE 24 72 72
FONTBOUNDINGBOX 24 24 0 -3
STARTPROPERTIES 4
FONT_DESCENT 3
FONT_ASCENT 21
DEFAULT_CHAR 2
COPYRIGHT "Copyright (c) 1992 AT&T - All rights reserved."
ENDPROPERTIES
CHARS 129
STARTCHAR ch-2
ENCODING 2
SWIDTH 1000 0
DWIDTH 24 0
BBX 24 24 0 -3
BITMAP
0000e0
0060c0
fff0c0
0c00c0
0c00c0
0c08c8
0c0ec4
180cc6
180cc3
18c8c3
1fd8c3
38d0c0
38e0c4
78c0c7
58c0c6
98c7ce
18c18c
18c018
18c030
1fc060
18c0c0
180380
180e00
007000
ENDCHAR
STARTCHAR ch-12
ENCODING 12
SWIDTH 1000 0
DWIDTH 24 0
BBX 24 24 0 -3
BITMAP
003800
01b006
fff3ff
183066
183066
183266
183766
183c66
10f066
333066
3fb066
333066
733066
b33066
333266
333266
333366
333f46
331ec6
3f008e
33018c
30010c
00027c
000c18
ENDCHAR
STARTCHAR ch-18
ENCODING 18
SWIDTH 1000 0
DWIDTH 24 0
BBX 24 24 0 -3
BITMAP
001c70
00d860
fff860
0c1860
0c1860
0c1864
081867
181866
181b6c
119fe8
3fd870
319860
719860
b19860
319860
319860
319860
319860
319862
3f9862
319f62
307c63
00307f
00203e
ENDCHAR
STARTCHAR ch-20
ENCODING 20
SWIDTH 1000 0
DWIDTH 24 0
BBX 24 24 0 -3
BITMAP
000006
00dfff
ffe618
0c0618
0c0618
0c0618
180618
180618
118618
3fc61a
31bfff
318618
718618
718618
b18618
318618
318618
318c18
3f8c18
318c18
301818
301818
003018
00c018
ENDCHAR
STARTCHAR ch-21
ENCODING 21
SWIDTH 1000 0
DWIDTH 24 0
BBX 24 24 0 -3
BITMAP
000380
00c300
ffe300
0c0330
0c3ff8
0c0330
0c0332
0c0332
180633
19863f
1fcc1e
19b000
3981c0
398180
598180
998186
19bfff
198180
198180
1f8180
198180
180180
000180
000180
ENDCHAR
STARTCHAR ch-32
ENCODING 32
SWIDTH 1000 0
DWIDTH 24 0
BBX 24 24 0 -3
BITMAP
000818
00cffc
ffec18
0c0c18
0c0c18
0c0c18
080c18
180c18
180ff8
118c18
3fcc18
318c18
718c18
b18c18
318c18
318ff8
318c18
318c18
318c18
3f8c18
318c18
300c1a
007fff
000000
ENDCHAR
STARTCHAR ch-37
ENCODING 37
SWIDTH 1000 0
DWIDTH 24 0
BBX 24 24 0 -3
BITMAP
00000c
00687e
ffffe0
0c0c60
0c0c60
0c0c60
0c0c60
180c60
180c66
10cfff
3fec60
38cc60
78cc60
58cc60
98cc30
18cc30
18cc30
18cc32
18ff1a
18dc1a
1fd00e
1800ce
183fe7
000003
ENDCHAR
STARTCHAR ch-38
ENCODING 38
SWIDTH 1000 0
DWIDTH 24 0
BBX 24 24 0 -3
BITMAP
01c700
018610
1d861c
198638
19f660
198780
198602
198602
198603
19f7ff
ff83fe
780000
400000
000006
ffffff
018000
030030
03fff8
078030
0d8030
198030
618030
01fff0
018030
ENDCHAR
STARTCHAR ch-39
ENCODING 39
SWIDTH 1000 0
DWIDTH 24 0
BBX 24 24 0 -3
BITMAP
0000e0
0060c0
fff0c0
0c00c0
0c00c0
0c00c6
0c00ff
1800c0
1800c0
10c0c0
3fe0c0
38c0c0
78c8c6
58cfff
98cc06
18cc06
18cc06
18cc06
1fcc06
18cc06
18cc06
180ffe
000c06
000c06
ENDCHAR
STARTCHAR ch-50
ENCODING 50
SWIDTH 1000 0
DWIDTH 24 0
BBX 24 24 0 -3
BITMAP
000800
00ce00
ffec00
0c0c0c
0c0ffe
0c080c
08180c
18100c
181f8c
11a18c
3fc18c
39818c
59818c
59918c
999f8c
19981c
199818
1998f8
199832
1f9802
199802
181803
001fff
000ffe
ENDCHAR
STARTCHAR ch-52
ENCODING 52
SWIDTH 1000 0
DWIDTH 24 0
BBX 24 24 0 -3
BITMAP
0001c0
030180
ff8180
182186
183fff
183186
183184
303188
303180
333180
3fb18c
733ffe
73320c
b33218
333118
333130
3321b0
3360e0
3f60c0
3341e0
30c338
30861f
01180e
026006
ENDCHAR
STARTCHAR ch-58
ENCODING 58
SWIDTH 1000 0
DWIDTH 24 0
BBX 24 24 0 -3
BITMAP
002006
01bfff
fff000
183000
183006
183fff
183180
103180
103180
33318c
3fb1fe
33318c
73318c
b3318c
33318c
33318c
33330c
33630c
33630c
3f421c
30c618
308418
0108f8
001030
ENDCHAR
STARTCHAR ch-63
ENCODING 63
SWIDTH 1000 0
DWIDTH 24 0
BBX 24 24 0 -3
BITMAP
0000e0
00c0c0
ffe0c0
0c00c0
0c10c6
0c1fff
081800
181800
181880
1198e0
3fd8c0
3198c0
7198c0
b198c0
319980
319980
319980
31b110
31b108
3fa20c
306206
305ffe
008f06
000806
ENDCHAR
STARTCHAR ch-69
ENCODING 69
SWIDTH 1000 0
DWIDTH 24 0
BBX 24 24 0 -3
BITMAP
0000e0
00c0c0
ffe0c0
0c00cc
0c0ffe
0c00c0
0800c0
1800c0
1800c6
119fff
3fc000
318000
7180e0
b180c0
3180cc
318ffe
3180c0
3180c0
3180c0
3f80c0
3180c0
3000c6
003fff
000000
ENDCHAR
STARTCHAR ch-93
ENCODING 93
SWIDTH 1000 0
DWIDTH 24 0
BBX 24 24 0 -3
BITMAP
0000e4
0190c7
ffc8c6
0c0ccc
0c0cc8
0c0cd0
0c00c0
1810c6
181fff
119806
3fd806
399806
799ffe
599806
999806
199806
199ffe
199806
199806
1f9806
199806
199806
18183e
00180c
ENDCHAR
STARTCHAR ch-107
ENCODING 107
SWIDTH 1000 0
DWIDTH 24 0
BBX 24 24 0 -3
BITMAP
000380
030300
ff8306
187fff
180600
180420
100410
100818
307fec
233c0c
3fa000
730000
731938
b31930
331930
331930
331930
331930
3f1930
331132
303132
302133
00413f
01801e
ENDCHAR
STARTCHAR ch-108
ENCODING 108
SWIDTH 1000 0
DWIDTH 24 0
BBX 24 24 0 -3
BITMAP
000006
01bfff
ffc0c0
0c00c0
0c10c6
0c1fff
0c18c6
1818c6
1998c6
1fdffe
3998c6
3998c6
7998c6
599ffe
9998c6
1980c0
1984c0
198680
1f8380
1981c0
180370
00063f
00181e
00e006
ENDCHAR
STARTCHAR ch-111
ENCODING 111
SWIDTH 1000 0
DWIDTH 24 0
BBX 24 24 0 -3
BITMAP
00080c
00cffe
ffec0c
0c0c0c
0c0c0c
0c0ffc
180c0c
180c0c
118c0c
3fcc0c
318ffc
318c0c
718c0c
718c0c
b18c0c
318ffc
318460
318760
3f8660
318e62
300c62
301863
00307f
00c03e
ENDCHAR
STARTCHAR ch-114
ENCODING 114
SWIDTH 1000 0
DWIDTH 24 0
BBX 24 24 0 -3
BITMAP
000400
00c720
ffe618
0c0c0c
0c0806
0c1186
082180
180340
180340
118620
3fc630
318c1c
71980f
b1b006
31cff8
318c18
318c18
318c18
318c18
3f8c18
318c18
300ff8
000c18
000c18
ENDCHAR
STARTCHAR ch-116
ENCODING 116
SWIDTH 1000 0
DWIDTH 24 0
BBX 24 24 0 -3
BITMAP
000738
00c630
ffe630
0c0636
0c3fff
0c0630
080630
180000
180400
118770
3fc664
318667
718c66
b18c6c
319c68
319c70
31ac60
31cc60
318c62
3f8c62
318c62
300c63
000c7f
000c3e
ENDCHAR
STARTCHAR ch-124
ENCODING 124
SWIDTH 1000 0
DWIDTH 24 0
BBX 24 24 0 -3
BITMAP
004646
037f7f
ffc646
184646
184646
184646
104646
107e7e
304646
224646
3f4646
724646
724646
b27e7e
324646
324646
324646
324646
324646
3e4646
32c6c6
308686
009e9e
010d0c
ENDCHAR
STARTCHAR ch-129
ENCODING 129
SWIDTH 1000 0
DWIDTH 24 0
BBX 24 24 0 -3
BITMAP
01c1c0
018180
01818c
7ffffe
018180
018180
01ff80
018180
018180
01ff80
018180
018186
ffffff
018080
030040
07ffe0
0c6038
30c01f
c1ffe6
038060
0d8060
318060
01ffe0
018060
ENDCHAR
STARTCHAR ch-134
ENCODING 134
SWIDTH 1000 0
DWIDTH 24 0
BBX 24 24 0 -3
BITMAP
1001c0
0e0180
064186
807fff
706186
326184
046198
087ffc
186418
f06230
70c160
30c0c0
318378
390c1f
1a7006
000000
ffffff
018000
030000
07fff8
1b0018
e30018
03fff8
030018
ENDCHAR
STARTCHAR ch-135
ENCODING 135
SWIDTH 1000 0
DWIDTH 24 0
BBX 24 24 0 -3
BITMAP
0001c0
018180
ffd180
181186
183fff
183006
106004
306008
230000
3fbffe
730180
730180
b31180
331d80
33198c
3319fe
331980
333180
3f3180
332980
306580
004380
0081ff
01007e
ENDCHAR
STARTCHAR ch-140
ENCODING 140
SWIDTH 1000 0
DWIDTH 24 0
BBX 24 24 0 -3
BITMAP
000030
00cff8
ffe030
0c0030
0c0030
0c0ff0
080030
180030
180036
11bfff
3fc180
319184
718986
b18d8c
318dd0
3181c0
3181a0
3183b0
318d98
3ff99f
31b18e
302186
000f80
000300
ENDCHAR
STARTCHAR ch-141
ENCODING 141
SWIDTH 1000 0
DWIDTH 24 0
BBX 24 24 0 -3
BITMAP
00080c
00cffe
ffec0c
0c0c0c
0c0ffc
0c0c0c
180c0c
180ffc
118c0c
3fc000
398006
79bfff
598000
99801c
198018
19bfff
198018
198818
1f8618
198318
198318
180018
0000f8
000030
ENDCHAR
STARTCHAR ch-142
ENCODING 142
SWIDTH 1000 0
DWIDTH 24 0
BBX 24 24 0 -3
BITMAP
0001c0
00c180
ffe180
0c018c
0c3ffe
0c0000
080820
180e38
180c30
118a28
3fdb64
319146
71a086
b18000
318180
318186
31ffff
318180
318180
3f8180
318180
300180
000180
000180
ENDCHAR
STARTCHAR ch-145
ENCODING 145
SWIDTH 1000 0
DWIDTH 24 0
BBX 24 24 0 -3
BITMAP
000100
00c1c0
ffe180
0c120c
0c1ffe
0c188c
18188c
18188c
119ffc
3fd88c
39988c
39988c
599ffc
598400
998670
198460
198866
19bfff
1f8060
198060
180060
180060
000060
000060
ENDCHAR
STARTCHAR ch-147
ENCODING 147
SWIDTH 1000 0
DWIDTH 24 0
BBX 24 24 0 -3
BITMAP
000400
00c720
ffe638
0c0630
0c0620
0c0c46
0c0fff
180c60
181c60
119c60
3fac6c
39cffe
798c60
598c60
998c60
198c6c
198ffe
198c60
198c60
1f8c60
198c60
198c66
180fff
000c00
ENDCHAR
STARTCHAR ch-149
ENCODING 149
SWIDTH 1000 0
DWIDTH 24 0
BBX 24 24 0 -3
BITMAP
0001c0
00c180
ffe18c
0c1ffe
0c0180
0c0340
180330
180618
119818
3f8006
31ffff
71800c
71800c
b190cc
319fcc
3198cc
3198cc
3198cc
3f9fcc
3198cc
30000c
00000c
00007c
000018
ENDCHAR
STARTCHAR ch-151
ENCODING 151
SWIDTH 1000 0
DWIDTH 24 0
BBX 24 24 0 -3
BITMAP
0001c0
018180
ffd180
181186
183fff
186006
186004
101c00
31988c
3f98fe
399ecc
3992cc
5992cc
59b2cc
99aacc
19aacc
19c6dc
1984cc
198cc0
1f88c2
1998c2
1830c3
0060ff
01807e
ENDCHAR
STARTCHAR ch-154
ENCODING 154
SWIDTH 1000 0
DWIDTH 24 0
BBX 24 24 0 -3
BITMAP
0000e0
00c0c0
ffe0c0
0c00cc
0c1ffe
0c0000
080810
18041c
180618
118610
3fc026
31bfff
718000
b18000
31880c
318ffe
318c0c
318c0c
318c0c
3f8c0c
318c0c
300ffc
000c0c
000c0c
ENDCHAR
STARTCHAR ch-163
ENCODING 163
SWIDTH 1000 0
DWIDTH 24 0
BBX 24 24 0 -3
BITMAP
001018
019ffc
ffd818
0c1818
0c1ff8
0c1818
081818
181818
181ff8
118400
3fc700
318e06
718fff
b19806
31bc86
31d9c6
319e06
319846
319866
3f9fe6
318fce
30000c
00007c
000018
ENDCHAR
STARTCHAR ch-167
ENCODING 167
SWIDTH 1000 0
DWIDTH 24 0
BBX 24 24 0 -3
BITMAP
000080
0060e0
fff4c6
0607ff
060606
064606
7fe7fe
060606
060606
06e606
ff07fe
780606
400000
000006
ffffff
00c000
018000
03fff0
078030
0d8030
318030
c18030
01fff0
018030
ENDCHAR
STARTCHAR ch-169
ENCODING 169
SWIDTH 1000 0
DWIDTH 24 0
BBX 24 24 0 -3
BITMAP
000006
00dfff
ffe0c0
0c0080
0c090c
0c0ffe
080c0c
180c0c
180c0c
10cffc
3fec0c
38cc0c
38cc0c
58cffc
58cc0c
98cc0c
18cc0c
18cc0c
18cffc
1fc400
18c718
180e06
001803
006003
ENDCHAR
STARTCHAR ch-170
ENCODING 170
SWIDTH 1000 0
DWIDTH 24 0
BBX 24 24 0 -3
BITMAP
000738
018630
ffc636
0c3fff
0c0630
0c0630
0807f0
180630
180630
118630
3fc7f0
318630
718630
b18636
31ffff
3199b0
3199b0
319930
319b3e
3f9a1e
319c00
301806
001fff
001800
ENDCHAR
STARTCHAR ch-175
ENCODING 175
SWIDTH 1000 0
DWIDTH 24 0
BBX 24 24 0 -3
BITMAP
001084
0318c6
ffb18c
182108
184210
182108
10318c
3018c6
3018c6
230300
3fa306
733fff
733006
b33026
333236
333166
3330c6
3330c6
333166
3f3236
333436
303006
003ffe
003006
ENDCHAR
STARTCHAR ch-181
ENCODING 181
SWIDTH 1000 0
DWIDTH 24 0
BBX 24 24 0 -3
BITMAP
0001c0
00c180
ffe186
0c01ff
0c0180
0c118c
081ffe
18180c
18180c
11980c
3fdffc
31980c
71980c
b1980c
319ffc
31980c
31980c
31980c
319ffc
3f8400
318730
300e0e
001807
006003
ENDCHAR
STARTCHAR ch-186
ENCODING 186
SWIDTH 1000 0
DWIDTH 24 0
BBX 24 24 0 -3
BITMAP
000100
00c9c0
ffe986
0c1fff
0c1986
0c3108
0c3320
180238
180630
118444
3fcffe
399c60
79ac60
59cc64
998ffe
198c60
198c60
198c64
1f8ffe
198c60
198c60
180c66
000fff
000c00
ENDCHAR
STARTCHAR ch-188
ENCODING 188
SWIDTH 1000 0
DWIDTH 24 0
BBX 24 24 0 -3
BITMAP
000000
03200c
ffbffe
183180
183188
183ffc
103180
303180
303188
233ffc
3fb180
733180
733180
b33186
333fff
333006
330006
330046
3f2226
302926
30690e
00c80c
00c07c
000018
ENDCHAR
STARTCHAR ch-190
ENCODING 190
SWIDTH 1000 0
DWIDTH 24 0
BBX 24 24 0 -3
BITMAP
00200c
033ffe
ffb00c
18300c
18300c
183ffc
10300c
303330
303330
233330
3fbffe
733330
733330
b33336
337fff
336c44
336c46
334c24
3f4c28
308c30
308c18
013fdf
001e0e
001006
ENDCHAR
STARTCHAR ch-193
ENCODING 193
SWIDTH 1000 0
DWIDTH 24 0
BBX 24 24 0 -3
BITMAP
001020
018c38
ffc630
180620
180046
18ffff
180810
180e1c
300c18
300810
308910
3f50a0
7364c8
73376e
73366c
b3060c
330c18
330810
331830
331424
3f2646
31fbfb
30e2e3
008083
ENDCHAR
STARTCHAR ch-197
ENCODING 197
SWIDTH 1000 0
DWIDTH 24 0
BBX 24 24 0 -3
BITMAP
0001c0
030180
ff8186
187fff
180810
180418
102610
302226
303fff
236004
3f6388
730300
730306
b37fff
330300
33030c
3307fe
33060c
33060c
3f0c0c
330c1c
301818
0030f8
00c030
ENDCHAR
STARTCHAR ch-198
ENCODING 198
SWIDTH 1000 0
DWIDTH 24 0
BBX 24 24 0 -3
BITMAP
000818
018ffc
ffcc18
0c0c18
0c0cf8
0c0c98
082c98
182c9a
183fff
136006
3f6004
330ff8
730c18
b30c18
330ff8
330c18
330c18
330c18
330ff8
3f0c18
330c18
300c18
000cf8
000c30
ENDCHAR
STARTCHAR ch-202
ENCODING 202
SWIDTH 1000 0
DWIDTH 24 0
BBX 24 24 0 -3
BITMAP
00000c
7ffffe
006000
00c000
018030
03fff8
070030
1b0030
630030
03fff0
030030
000000
00c006
ffefff
0c0180
180180
10c306
3fe3ff
58c706
98cb06
18d306
18c306
1fc3fe
18c306
ENDCHAR
STARTCHAR ch-203
ENCODING 203
SWIDTH 1000 0
DWIDTH 24 0
BBX 24 24 0 -3
BITMAP
001010
018c1c
ffc618
0c0620
0c3ffe
0c0180
080180
180198
181ffc
118180
3fc180
318186
71ffff
b18600
318400
318c00
31880c
319ffe
3190c0
3fa0c0
3040c0
3080c0
0000c6
003fff
ENDCHAR
STARTCHAR ch-208
ENCODING 208
SWIDTH 1000 0
DWIDTH 24 0
BBX 24 24 0 -3
BITMAP
040000
070430
2667f8
3ff630
306630
36643f
32641f
306800
fff7f8
706218
326130
3260e0
6061b8
41e31f
80cc06
000000
ffffff
00e000
018000
07fff8
1d8018
e18018
01fff8
018018
ENDCHAR
STARTCHAR ch-209
ENCODING 209
SWIDTH 1000 0
DWIDTH 24 0
BBX 24 24 0 -3
BITMAP
0000e0
019cc7
ffd8c6
0c18c6
0c18c6
0c1ffe
080000
180000
183fff
118000
3fc80c
318ffe
718c0c
b18c0c
318c0c
318ffc
318000
318810
31861c
3f8318
318310
300026
003fff
000000
ENDCHAR
STARTCHAR ch-212
ENCODING 212
SWIDTH 1000 0
DWIDTH 24 0
BBX 24 24 0 -3
BITMAP
00100e
031c0c
ff980c
181f0c
1833ff
18234c
10764c
30964c
300dff
23080c
3f900c
73200c
7341cc
b30180
330186
337fff
3307a0
3305a0
330db0
3f0998
33119f
30218e
00c186
000180
ENDCHAR
STARTCHAR ch-218
ENCODING 218
SWIDTH 1000 0
DWIDTH 24 0
BBX 24 24 0 -3
BITMAP
0001c0
018186
ffffff
180180
18218c
183ffe
10318c
30318c
303ffc
23318c
3fb18c
733ffc
730190
b3018c
337ff6
331e06
330030
33ffff
331030
3f0c30
330630
300630
0000f0
000060
ENDCHAR
STARTCHAR ch-231
ENCODING 231
SWIDTH 1000 0
DWIDTH 24 0
BBX 24 24 0 -3
BITMAP
0000e0
0180c4
ffdffe
0c00c0
0c00c8
0c0ffc
0800c0
1800c2
183fff
118000
3fcffc
318c0c
718c0c
b18ffc
318c0c
318c0c
318ffc
318c0c
318c0c
3f8ffc
318200
30071c
000c07
003003
ENDCHAR
STARTCHAR ch-232
ENCODING 232
SWIDTH 1000 0
DWIDTH 24 0
BBX 24 24 0 -3
BITMAP
001c00
001800
20180c
3ffffe
304080
304884
37fffe
30c1a0
31f390
31529c
32448f
344886
304080
300000
37fffe
301800
203000
606018
60fffc
41c018
46c018
98c018
00fff8
00c018
ENDCHAR
STARTCHAR ch-236
ENCODING 236
SWIDTH 1000 0
DWIDTH 24 0
BBX 24 24 0 -3
BITMAP
070000
061230
fffbf8
060330
062330
7ff63e
00041e
000800
3fe7fc
326218
326130
3fe0e0
6001b8
40061f
801806
000000
ffffff
018000
030000
07fff8
1b0018
e30018
03fff8
030018
ENDCHAR
STARTCHAR ch-239
ENCODING 239
SWIDTH 1000 0
DWIDTH 24 0
BBX 24 24 0 -3
BITMAP
0011c8
031d8e
ff998c
1821d0
18c9a4
186fb7
182d9e
101988
331192
3f25bf
33ffb1
7362a8
734086
b32082
333fff
333080
3330d0
33305c
3f2c58
336630
304672
3040da
00818f
010603
ENDCHAR
STARTCHAR ch-244
ENCODING 244
SWIDTH 1000 0
DWIDTH 24 0
BBX 24 24 0 -3
BITMAP
000188
033f8c
ff8358
180342
184663
182626
102c30
300818
3017ec
23200f
3fc006
731ff8
731818
b31818
331818
331ff8
330000
331020
330838
3f0c30
330c20
300046
007fff
000000
ENDCHAR
STARTCHAR ch-253
ENCODING 253
SWIDTH 1000 0
DWIDTH 24 0
BBX 24 24 0 -3
BITMAP
0001c0
018188
ffdffc
180180
180182
187fff
100000
300c18
300810
237f7e
3f8810
730810
730e10
b378ff
332000
330000
337fff
330630
330630
3f0632
330c32
300c33
00183f
00601e
ENDCHAR
STARTCHAR ch-257
ENCODING 257
SWIDTH 1000 0
DWIDTH 24 0
BBX 24 24 0 -3
BITMAP
000840
018e70
ffcc60
181840
18108c
183ffe
187080
10b080
333ffc
3fb080
333080
733080
733ffc
b33080
333080
333086
333fff
333000
3f0000
332488
302446
304c63
01cc63
018c63
ENDCHAR
STARTCHAR ch-263
ENCODING 263
SWIDTH 1000 0
DWIDTH 24 0
BBX 24 24 0 -3
BITMAP
000200
018380
ffc300
0c2406
0c3fff
0c3006
083496
183296
1832a6
1337f6
3fb1c6
3332b6
733496
b33006
333186
333186
337fff
330180
330340
3f0320
330638
300c1f
00180e
006006
ENDCHAR
STARTCHAR ch-270
ENCODING 270
SWIDTH 1000 0
DWIDTH 24 0
BBX 24 24 0 -3
BITMAP
000c30
030820
ff8926
187fff
180820
181c70
181a68
103aac
3068a7
208922
3f0820
730000
730006
b3ffff
330184
332188
333980
3331fc
333180
3f2980
306580
304380
0081ff
03007e
ENDCHAR
STARTCHAR ch-273
ENCODING 273
SWIDTH 1000 0
DWIDTH 24 0
BBX 24 24 0 -3
BITMAP
0021c8
03198e
ff898c
180990
182186
183fff
106006
306004
300ff0
230810
3f8810
730ff0
730000
b3200c
333ffe
33318c
33318c
33318c
333ffc
3f318c
33318c
30318c
003ffc
00300c
ENDCHAR
STARTCHAR ch-274
ENCODING 274
SWIDTH 1000 0
DWIDTH 24 0
BBX 24 24 0 -3
BITMAP
000830
030620
ff8244
183ffe
180180
180180
101ffc
300180
300182
237fff
3f8000
730268
730f66
b33c62
330c60
337fff
330c64
330c26
330f2c
3f7c18
332c3a
300c6e
007d87
001803
ENDCHAR
STARTCHAR ch-281
ENCODING 281
SWIDTH 1000 0
DWIDTH 24 0
BBX 24 24 0 -3
BITMAP
006006
0344ff
ffce06
185804
186048
184230
104318
303f18
300002
2240ff
3f6012
726014
727e90
b250d0
3290d2
3210df
32fe90
321090
323090
3e2990
326d50
304d30
00821f
01040e
ENDCHAR
STARTCHAR ch-294
ENCODING 294
SWIDTH 1000 0
DWIDTH 24 0
BBX 24 24 0 -3
BITMAP
0001c0
030180
ffc186
187fff
186110
186110
186ffe
306110
306110
3e7fff
326040
726040
7267fc
b26444
326444
3267fc
326444
326444
3e67fc
324000
30c210
30830c
010606
001806
ENDCHAR
STARTCHAR ch-298
ENCODING 298
SWIDTH 1000 0
DWIDTH 24 0
BBX 24 24 0 -3
BITMAP
004006
037fff
ffe220
306226
307fff
306220
306220
206ff8
226888
3f6888
626ff8
626888
626888
a24ff8
224080
22e086
22bfff
22b086
3fb0a6
2137d6
223396
203206
00301e
00300c
ENDCHAR
STARTCHAR ch-299
ENCODING 299
SWIDTH 1000 0
DWIDTH 24 0
BBX 24 24 0 -3
BITMAP
000100
0301c0
ffc184
1827e7
183426
183424
180428
3807f0
300428
331c2c
3ff426
7367e6
734000
b30180
330186
33ffff
3303a0
3307a0
330590
3f0d98
33198c
30318f
00c186
000180
ENDCHAR
STARTCHAR ch-300
ENCODING 300
SWIDTH 1000 0
DWIDTH 24 0
BBX 24 24 0 -3
BITMAP
060030
044220
052426
ff99ff
0c2c30
1f4468
158268
34a4a4
641927
842c22
044420
006006
ffffff
018100
030080
060060
0ffff8
30c01f
c18006
03ffe0
0d8060
718060
01ffe0
018060
ENDCHAR
STARTCHAR ch-314
ENCODING 314
SWIDTH 1000 0
DWIDTH 24 0
BBX 24 24 0 -3
BITMAP
000000
000030
1ffff8
000000
000000
000000
000000
000000
000006
ffffff
001800
001800
041800
071880
061860
0e1830
0c1818
18180c
30180e
601806
801806
001800
00f800
003000
ENDCHAR
STARTCHAR ch-316
ENCODING 316
SWIDTH 1000 0
DWIDTH 24 0
BBX 24 24 0 -3
BITMAP
070380
060300
060300
060300
06c300
ffe300
00c300
018300
018300
030300
020300
070300
0ec300
166300
266300
c60300
060300
060300
060302
060302
060302
060303
0603ff
0601fe
ENDCHAR
STARTCHAR ch-318
ENCODING 318
SWIDTH 1000 0
DWIDTH 24 0
BBX 24 24 0 -3
BITMAP
0701c0
060180
060180
060180
06c180
ffe180
00c180
018180
01818c
033ffe
030180
060180
070180
0ec180
166180
266180
c60180
060180
060180
060180
060180
060186
06ffff
060000
ENDCHAR
STARTCHAR ch-320
ENCODING 320
SWIDTH 1000 0
DWIDTH 24 0
BBX 24 24 0 -3
BITMAP
0e0000
0c080c
0c0ffe
0c0c0c
0ccc0c
ffec0c
018c0c
018c0c
030c0c
030c0c
060c0c
0d0ffc
0c8c0c
1ccc00
2ccc00
cc0c00
0c0c00
0c0c02
0c0c02
0c0c02
0c0c03
0c0fff
0c07fe
0c0000
ENDCHAR
STARTCHAR ch-321
ENCODING 321
SWIDTH 1000 0
DWIDTH 24 0
BBX 24 24 0 -3
BITMAP
070206
0603ff
060306
066306
fff30c
00630c
00c318
00c310
018320
030310
020308
07030c
0ec306
1e6306
367303
c63303
060303
060303
060303
06033f
06030e
060300
060300
060300
ENDCHAR
STARTCHAR ch-327
ENCODING 327
SWIDTH 1000 0
DWIDTH 24 0
BBX 24 24 0 -3
BITMAP
0e000c
0c003e
0c08f0
0c0f60
0ccc60
ffec60
018c60
018c60
030c60
030c66
060fff
0d0c60
0c8c60
1ccc60
2ccc60
cc0c30
0c0c30
0c0c32
0c0c1a
0c0c1a
0c0cce
0c7f0e
0c3807
0c2003
ENDCHAR
STARTCHAR ch-328
ENCODING 328
SWIDTH 1000 0
DWIDTH 24 0
BBX 24 24 0 -3
BITMAP
0e000c
0c003e
0c08f0
0c0f00
0d8c00
ffcc00
018c00
030c06
030fff
060c30
060c30
0c0c30
1e0c30
3d8c30
6ccc30
8ccc30
0c0c30
0c1830
0c1830
0c1030
0c3030
0c2030
0cc030
0c0030
ENDCHAR
STARTCHAR ch-329
ENCODING 329
SWIDTH 1000 0
DWIDTH 24 0
BBX 24 24 0 -3
BITMAP
0e00e0
0c00c0
0c00c0
0c00c0
0d80c0
ffc0c0
018ec0
030cc0
030ccc
060cfe
060cc0
0c0cc0
0e0cc0
1d8cc0
2cccc0
ccccc0
0c0cc0
0c0cc0
0c0cc0
0c0cc0
0c0cc0
0c0cc6
0cffff
0c0000
ENDCHAR
STARTCHAR ch-336
ENCODING 336
SWIDTH 1000 0
DWIDTH 24 0
BBX 24 24 0 -3
BITMAP
0e01c0
0c0180
0c0180
0c0180
0d8186
ffdfff
018300
030300
030300
060200
040600
0e040c
1d8ffe
2cce0c
ccd60c
0c260c
0c460c
0c860c
0c060c
0c060c
0c060c
0c07fc
0c060c
0c060c
ENDCHAR
STARTCHAR ch-339
ENCODING 339
SWIDTH 1000 0
DWIDTH 24 0
BBX 24 24 0 -3
BITMAP
0e0700
0c0640
0c0630
0c0618
0d8618
ff8606
01ffff
030600
030600
060620
060c38
0d0c30
0c8c30
1cca60
2cca60
cc1940
0c11c0
0c3080
0c21c0
0c4360
0d8638
0c0c1f
0c180e
0c6006
ENDCHAR
STARTCHAR ch-341
ENCODING 341
SWIDTH 1000 0
DWIDTH 24 0
BBX 24 24 0 -3
BITMAP
0e0200
0c0188
0c00ce
0c00cc
0cc70c
ffe618
018618
018618
030630
030630
060660
0d8668
0cd6c4
1cd686
2c3783
cc3703
0c6603
0c6600
0c0e08
0c1608
0c2608
0cc60c
0c07fc
0c03f8
ENDCHAR
STARTCHAR ch-342
ENCODING 342
SWIDTH 1000 0
DWIDTH 24 0
BBX 24 24 0 -3
BITMAP
0e0818
0c0ffc
0c0c18
0c0c18
0d8c18
ffcc18
018c18
030c18
030ff8
060c18
040c18
0e0c18
1d8c18
2ccc18
cccc18
0c0ff8
0c0c18
0c0c18
0c0c18
0c0c18
0c0c18
0c0c1a
0c7fff
0c0000
ENDCHAR
STARTCHAR ch-343
ENCODING 343
SWIDTH 1000 0
DWIDTH 24 0
BBX 24 24 0 -3
BITMAP
0e000c
0c003e
0c10f0
0c1fe0
0d9860
ffd860
019860
031860
031866
061fff
061860
0d1860
0c9860
1cd860
2cd860
cc1830
0c1832
0c19b2
0c7e32
0c381a
0c201a
0c018f
0c7fcf
0c0006
ENDCHAR
STARTCHAR ch-346
ENCODING 346
SWIDTH 1000 0
DWIDTH 24 0
BBX 24 24 0 -3
BITMAP
0e0200
0c0380
0c0300
0c0300
0cc606
ffe7ff
018d80
018980
031180
03218c
0601fe
0d0180
0c8180
1cc180
2cc180
cc0186
0c01ff
0c0180
0c0180
0c0180
0c0180
0c0180
0c0180
0c0180
ENDCHAR
STARTCHAR ch-349
ENCODING 349
SWIDTH 1000 0
DWIDTH 24 0
BBX 24 24 0 -3
BITMAP
0e0000
0c100c
0c1ffe
0c180c
0d980c
ffd80c
01980c
03180c
03180c
06180c
06180c
0c1ffc
0e0060
1d8460
2cc760
ccc660
0c0660
0c0c60
0c0c62
0c0862
0c1862
0c1063
0c207f
0cc03e
ENDCHAR
STARTCHAR ch-350
ENCODING 350
SWIDTH 1000 0
DWIDTH 24 0
BBX 24 24 0 -3
BITMAP
0e00e0
0c00c0
0c00c0
0c00c0
0d90c6
ffdfff
0198c6
0318c6
0318c6
0618c6
061ffe
0c18c6
0e18c6
1d98c6
2cd8c6
ccd8c6
0c1ffe
0c18c6
0c18c6
0c00c0
0c00c0
0c00c0
0c00c0
0c00c0
ENDCHAR
STARTCHAR ch-351
ENCODING 351
SWIDTH 1000 0
DWIDTH 24 0
BBX 24 24 0 -3
BITMAP
001c00
0e1838
0c1830
0c1830
0ffff0
001800
38180e
30180c
30180c
3ffffc
30000c
000000
000030
1ffff8
000000
000006
ffffff
001800
041880
071860
0e1838
18181c
60f80c
003000
ENDCHAR
STARTCHAR ch-352
ENCODING 352
SWIDTH 1000 0
DWIDTH 24 0
BBX 24 24 0 -3
BITMAP
0e0000
0c0006
0c1fff
0c0006
0cc006
ffe0c6
018fe6
018006
030006
0308c6
060fe6
0d0cc6
0c8cc6
1cccc6
2cccc6
cc0fc6
0c0cc6
0c0c06
0c0006
0c0006
0c0006
0c0006
0c003e
0c000c
ENDCHAR
STARTCHAR ch-354
ENCODING 354
SWIDTH 1000 0
DWIDTH 24 0
BBX 24 24 0 -3
BITMAP
0e0800
0c0e00
0c0c00
0c0c00
0d8c00
ffd806
019fff
031180
033180
062180
044180
0e11a0
1d9d90
2cd998
ccd98c
0c198c
0c1186
0c3186
0c2186
0c4186
0c8180
0c0180
0c0f80
0c0300
ENDCHAR
STARTCHAR ch-357
ENCODING 357
SWIDTH 1000 0
DWIDTH 24 0
BBX 24 24 0 -3
BITMAP
0e0010
0c101c
0c0c18
0c0630
0d8620
ffc04c
01bffe
030180
030180
060180
04018c
0e3ffe
0d8180
1cc180
2cc180
cc0186
0c7fff
0c0180
0c0180
0c0180
0c0180
0c0180
0c0180
0c0180
ENDCHAR
STARTCHAR ch-360
ENCODING 360
SWIDTH 1000 0
DWIDTH 24 0
BBX 24 24 0 -3
BITMAP
00000c
7ffffe
00c300
00c300
10c318
1ffffc
18c318
18c318
18c318
1ffff8
180018
000000
000060
0ffff0
000000
000006
ffffff
041800
071880
061860
0c1838
18181c
60f80c
003000
ENDCHAR
STARTCHAR ch-365
ENCODING 365
SWIDTH 1000 0
DWIDTH 24 0
BBX 24 24 0 -3
BITMAP
040000
06180c
0ffffe
0c3418
1a6230
336340
c8c180
0d80c0
030070
06003f
0c019e
33ffc6
c00000
000000
000018
3ffffc
001800
041800
0718c0
0e1830
1c181c
30180e
c0f806
003000
ENDCHAR
STARTCHAR ch-375
ENCODING 375
SWIDTH 1000 0
DWIDTH 24 0
BBX 24 24 0 -3
BITMAP
0e0380
0c0300
0c0304
0c3ffe
0d8300
ffc308
019ffc
030300
030300
060304
063ffe
0c0600
0e0618
1d841a
2cffff
cccc18
0c0a18
0c1918
0c1198
0c3198
0c2018
0c4018
0d80f8
0c0030
ENDCHAR
STARTCHAR ch-378
ENCODING 378
SWIDTH 1000 0
DWIDTH 24 0
BBX 24 24 0 -3
BITMAP
0e071c
0c0618
0c0618
0c3fff
0d8618
ffc618
018618
0307f8
030618
060618
060618
0d07f8
0c8618
1cc618
2cc618
cc0618
0c3fff
0c0000
0c0400
0c0710
0c0e0c
0c0c06
0c1803
0c6003
ENDCHAR
STARTCHAR ch-383
ENCODING 383
SWIDTH 1000 0
DWIDTH 24 0
BBX 24 24 0 -3
BITMAP
0e0e00
0c0c00
0c0c30
0c0ff8
0d9830
ffd830
019830
031fe0
030060
060066
047fff
0e0180
1d2188
2d918e
cd99cc
0c19d0
0c01a0
0c05b0
0c1998
0cf19f
0c618e
0c4186
0c0f80
0c0300
ENDCHAR
STARTCHAR ch-384
ENCODING 384
SWIDTH 1000 0
DWIDTH 24 0
BBX 24 24 0 -3
BITMAP
001c00
00180c
7ffffe
000000
0ffff0
0c0030
0c7e30
0c4230
0c4230
0c7e30
0c0030
0ffff0
000000
000060
0ffff0
000000
000006
ffffff
041800
0718c0
0e1838
18181c
60f80c
003000
ENDCHAR
STARTCHAR ch-385
ENCODING 385
SWIDTH 1000 0
DWIDTH 24 0
BBX 24 24 0 -3
BITMAP
0380e0
0300c0
0330cc
7ffffe
0300c0
07c1e0
0f33d0
1b36dc
330ccf
c330c6
0300c0
000000
0ffff0
000000
000006
ffffff
001800
041800
0718c0
0e1830
0c1818
18181c
60f80c
003000
ENDCHAR
STARTCHAR ch-388
ENCODING 388
SWIDTH 1000 0
DWIDTH 24 0
BBX 24 24 0 -3
BITMAP
0e0030
0c1ff8
0c0030
0c0030
0d8030
ffdff0
018030
030030
030036
067fff
040180
0e2188
1d118e
2d998c
cd99d0
0c01c0
0c01a0
0c05b0
0c1998
0cf19f
0c618e
0c4186
0c0f80
0c0300
ENDCHAR
STARTCHAR ch-389
ENCODING 389
SWIDTH 1000 0
DWIDTH 24 0
BBX 24 24 0 -3
BITMAP
0e0204
0c2187
0c18c6
0c0ccc
0d8c08
ffc010
01bffc
03318c
03318c
06318c
063ffc
0c318c
0e318c
1d318c
2dbffc
cdb18c
0c0180
0c0186
0c7fff
0c0180
0c0180
0c0180
0c0180
0c0180
ENDCHAR
STARTCHAR ch-394
ENCODING 394
SWIDTH 1000 0
DWIDTH 24 0
BBX 24 24 0 -3
BITMAP
1c1c00
181806
1818ff
187f26
1b1826
ff9826
037f26
031826
061866
061846
0c1e46
0cf8c6
1a619e
39800c
598180
980180
18ffff
180340
180620
180630
180c18
18181f
18300e
18c006
ENDCHAR
STARTCHAR ch-397
ENCODING 397
SWIDTH 1000 0
DWIDTH 24 0
BBX 24 24 0 -3
BITMAP
0e0818
0c0ffc
0c0c18
0c0c18
0d8cf8
ffcc98
018c98
030c98
030c98
062c9a
043fff
0e3006
1d3006
2db436
cdb7f6
0c3636
0c3636
0c3636
0c37f6
0c3636
0c3006
0c3006
0c303e
0c300c
ENDCHAR
STARTCHAR ch-398
ENCODING 398
SWIDTH 1000 0
DWIDTH 24 0
BBX 24 24 0 -3
BITMAP
0e01c0
0c0180
0c0186
0c01ff
0d8180
ffd18c
019ffe
03180c
03180c
06180c
041ffc
0e180c
1d980c
2cd80c
ccdffc
0c180c
0c180c
0c180c
0c1ffc
0c0800
0c0e30
0c1c0e
0c3007
0cc003
ENDCHAR
STARTCHAR ch-399
ENCODING 399
SWIDTH 1000 0
DWIDTH 24 0
BBX 24 24 0 -3
BITMAP
0e0006
0c3fff
0c0000
0c0000
0d8818
ffcffc
018c18
030c18
030c18
060ff8
040c18
0e0000
0d2006
1dbfff
2db086
cc3086
0c3086
0c3ffe
0c3086
0c3086
0c3086
0c3ffe
0c3006
0c3006
ENDCHAR
STARTCHAR ch-413
ENCODING 413
SWIDTH 1000 0
DWIDTH 24 0
BBX 24 24 0 -3
BITMAP
0e100c
0c1ffe
0c188c
0c188c
0d9ffc
ffd88c
01988c
03188c
031ffc
060660
060c60
0d087f
0d943f
1da700
2c0618
cc0ffc
0c0818
0c1430
0c6360
0c01c0
0c0370
0c063f
0c180e
0c6006
ENDCHAR
STARTCHAR ch-422
ENCODING 422
SWIDTH 1000 0
DWIDTH 24 0
BBX 24 24 0 -3
BITMAP
088000
0ee046
0cc07f
19ff66
311066
ca1066
0dffe6
0c1066
189066
389f66
d89066
189066
18937e
1bfc6c
19c060
000000
1ffff8
000000
ffffff
020c00
038cc0
070c3c
1c7c0e
601806
ENDCHAR
STARTCHAR ch-423
ENCODING 423
SWIDTH 1000 0
DWIDTH 24 0
BBX 24 24 0 -3
BITMAP
0e00e0
0c00c0
0c00c6
0c3fff
0d80c0
ffc0c0
019ffe
030000
030000
060ffc
060c0c
0d0c0c
0c8ffc
1cc410
2cc210
cc0226
0c3fff
0c0000
0c0000
0c0ffc
0c0c0c
0c0c0c
0c0ffc
0c0c0c
ENDCHAR
STARTCHAR ch-426
ENCODING 426
SWIDTH 1000 0
DWIDTH 24 0
BBX 24 24 0 -3
BITMAP
0e1326
0c1f3f
0c1326
0c1326
0d9326
ffdf3e
018000
030000
031ffe
0618c6
0618c6
0d18c6
0c9ffe
1cd8c6
2cd8c6
cc18c6
0c1ffe
0c00c0
0c00c6
0c7fff
0c00c0
0c00c0
0c00c0
0c00c0
ENDCHAR
STARTCHAR ch-430
ENCODING 430
SWIDTH 1000 0
DWIDTH 24 0
BBX 24 24 0 -3
BITMAP
1c0360
181248
181ffc
181248
1b1248
ff9ff8
031248
031248
061ff8
040000
0c0000
1a7ffe
190000
398000
599ff8
981818
181818
181ff8
180020
180830
180420
180446
18ffff
180000
ENDCHAR
STARTCHAR ch-432
ENCODING 432
SWIDTH 1000 0
DWIDTH 24 0
BBX 24 24 0 -3
BITMAP
1c0000
180006
18ffff
181180
1b1d98
ff9986
033183
067fff
06c182
0c4182
0855aa
1c4992
1a4992
3b55aa
5b4182
984182
1855aa
184992
184992
1855aa
184182
184182
18419e
18418c
ENDCHAR
STARTCHAR ch-435
ENCODING 435
SWIDTH 1000 0
DWIDTH 24 0
BBX 24 24 0 -3
BITMAP
1c01c0
180180
180186
187fff
1b0800
ff8c38
03180e
033426
065ff8
040420
0c0420
1b1ff8
198420
398426
587fff
980684
180c86
18384c
18d868
181830
181f38
187c1f
18300e
182006
ENDCHAR
STARTCHAR ch-441
ENCODING 441
SWIDTH 1000 0
DWIDTH 24 0
BBX 24 24 0 -3
BITMAP
000070
000ff8
1ffe00
001800
101818
1ffffc
181818
181818
181818
1ffff8
181818
001800
401806
7fffff
601806
601906
6018c6
601f66
67f866
63c066
620006
600006
60003e
60000c
ENDCHAR
STARTCHAR ch-442
ENCODING 442
SWIDTH 1000 0
DWIDTH 24 0
BBX 24 24 0 -3
BITMAP
100018
1ffffc
181818
181818
181818
1ffff8
181818
181818
181818
1ffff8
181818
001800
401806
7fffff
601806
601906
6018c6
601f66
67f866
63c066
620006
600006
60003e
60000c
ENDCHAR
STARTCHAR ch-445
ENCODING 445
SWIDTH 1000 0
DWIDTH 24 0
BBX 24 24 0 -3
BITMAP
001800
003800
003400
006200
00c180
0198f0
06183f
1bffce
e00400
066660
061860
062660
06c260
07ffe0
001800
20180c
3ffffe
30300c
30240c
30430c
33fd8c
31c18c
31007c
300018
ENDCHAR
STARTCHAR ch-446
ENCODING 446
SWIDTH 1000 0
DWIDTH 24 0
BBX 24 24 0 -3
BITMAP
000070
0007f8
007f80
3ff800
001800
001800
001800
001800
001806
ffffff
007a00
00d900
00d900
019880
0198c0
031860
061870
0c1838
18181f
30180e
c01806
001800
001800
001800
ENDCHAR
STARTCHAR ch-447
ENCODING 447
SWIDTH 1000 0
DWIDTH 24 0
BBX 24 24 0 -3
BITMAP
0001c0
000fe0
0ffe00
001800
001806
ffffff
007a00
00d900
0198c0
031870
06183f
0c181e
300006
c0e700
00c600
00c600
00c600
00c600
018600
018602
030602
060603
1807ff
e003fe
ENDCHAR
STARTCHAR ch-448
ENCODING 448
SWIDTH 1000 0
DWIDTH 24 0
BBX 24 24 0 -3
BITMAP
0000e0
000ff0
0ffe00
001800
001800
001806
ffffff
00fa00
01d980
0398e0
07187f
0c001e
300306
cfff80
00c300
00c318
00c7fc
018618
018618
030018
060018
0c0030
1801f0
600060
ENDCHAR
STARTCHAR ch-449
ENCODING 449
SWIDTH 1000 0
DWIDTH 24 0
BBX 24 24 0 -3
BITMAP
006080
00f0e0
0380c0
1e00c0
e600c0
0600c0
0600c0
0660c0
fff180
060180
060180
0e0180
0f8180
0e6100
1e3100
163300
360310
260208
46020c
860406
06043e
067fc3
063c03
062003
ENDCHAR
STARTCHAR ch-457
ENCODING 457
SWIDTH 1000 0
DWIDTH 24 0
BBX 24 24 0 -3
BITMAP
0000e0
001ff0
0ff800
001800
001806
ffffff
001800
001830
1ffff8
001830
001836
ffffff
001830
001830
001830
1ffff0
007a00
00d900
0198c0
031870
06183f
18181e
e01806
001800
ENDCHAR
STARTCHAR ch-459
ENCODING 459
SWIDTH 1000 0
DWIDTH 24 0
BBX 24 24 0 -3
BITMAP
00c1c0
07e180
7e0180
060180
060184
060987
06c986
ffe98c
061988
061990
0e3180
0f3180
0ec340
1e6340
166340
360220
260620
460630
860430
060c18
06081c
06100f
06200e
06c006
ENDCHAR
STARTCHAR ch-465
ENCODING 465
SWIDTH 1000 0
DWIDTH 24 0
BBX 24 24 0 -3
BITMAP
00e01c
0ff018
fe0018
060418
060318
060198
066198
fff018
060018
0e0818
0e0618
0f0318
1ec318
1e601a
16601f
3600f8
260798
463c18
860018
060018
060018
060018
060018
060018
ENDCHAR
STARTCHAR ch-466
ENCODING 466
SWIDTH 1000 0
DWIDTH 24 0
BBX 24 24 0 -3
BITMAP
0181c0
0fc180
fc0180
0c0180
0c0180
0c1190
0d9d8c
ffd986
0c1987
0c1183
1c1183
1e2180
1d8190
3cc19c
2ccf98
6c0338
4c0030
8c0060
0c00c0
0c0180
0c0300
0c0600
0c1800
0c6000
ENDCHAR
STARTCHAR ch-469
ENCODING 469
SWIDTH 1000 0
DWIDTH 24 0
BBX 24 24 0 -3
BITMAP
019c70
0fd860
fc1860
0c1860
0c1860
0c1860
0d9864
ffd867
0c1b66
1c1fec
1c1868
1e1870
1d1860
3d9860
2d9860
2c1860
6c1860
4c1860
8c1862
0c1862
0c1f62
0cfc63
0c707f
0c403e
ENDCHAR
STARTCHAR ch-472
ENCODING 472
SWIDTH 1000 0
DWIDTH 24 0
BBX 24 24 0 -3
BITMAP
018200
0fc188
fc00ce
0c00cc
0c070c
0c0618
0d8618
ffc618
0c0630
0c0630
1e0660
1d2668
1da6c4
3da686
2c6783
2c6703
6cc603
4cc600
8c0e08
0c1608
0c2608
0cc60c
0c07fc
0c03f8
ENDCHAR
STARTCHAR ch-479
ENCODING 479
SWIDTH 1000 0
DWIDTH 24 0
BBX 24 24 0 -3
BITMAP
00c818
07effc
fe0c18
060c18
060c18
060c18
06cc18
ffec18
060ff8
060c18
0e0c18
0f0c18
0ecc18
1e6c18
166c18
360ff8
260c18
460c18
860c18
060c18
060c18
060c1a
067fff
060000
ENDCHAR
STARTCHAR ch-481
ENCODING 481
SWIDTH 1000 0
DWIDTH 24 0
BBX 24 24 0 -3
BITMAP
018700
0fc640
fc0630
0c0618
0c0618
0c0606
0dbfff
ffc600
0c0600
1c0620
1c0c38
1e0c30
1d8c30
3cca60
2cca60
2c1940
6c11c0
4c3080
8c21c0
0c4360
0d8638
0c0c1f
0c180e
0c6006
ENDCHAR
STARTCHAR ch-483
ENCODING 483
SWIDTH 1000 0
DWIDTH 24 0
BBX 24 24 0 -3
BITMAP
0181c0
0fc180
fc0180
0c0180
0c0186
0c7fff
0d8180
ffc180
0c0180
0c0180
1c018c
1e3ffe
1d87a0
3cc7a0
2cc590
2c0d90
6c0998
4c198c
8c118f
0c2186
0cc186
0c0180
0c0180
0c0180
ENDCHAR
STARTCHAR ch-484
ENCODING 484
SWIDTH 1000 0
DWIDTH 24 0
BBX 24 24 0 -3
BITMAP
030000
0f800c
fc3ffe
0c0180
0c0188
0c218e
0d918c
ffd988
0c0d98
0c0d90
1e01a0
1d8186
1cffff
3cc180
2c0180
6c0180
4c0180
8c0180
0c0180
0c0180
0c0180
0c0180
0c0180
0c0180
ENDCHAR
STARTCHAR ch-486
ENCODING 486
SWIDTH 1000 0
DWIDTH 24 0
BBX 24 24 0 -3
BITMAP
003800
003000
003018
3ffffc
002000
006030
1ffff8
004400
00c206
ffffff
010100
030680
021f60
05f838
08181f
301866
cffff0
007800
00de00
0199e0
031878
0c181c
70180c
001800
ENDCHAR
STARTCHAR ch-487
ENCODING 487
SWIDTH 1000 0
DWIDTH 24 0
BBX 24 24 0 -3
BITMAP
0181c0
0fc180
fc0180
0c0180
0c218c
0c3ffe
0db18c
fff18c
0c318c
1c318c
1c318c
1e318c
1d318c
3dffff
2d8340
2c0340
6c0640
4c0620
8c0420
0c0c30
0c0818
0c101f
0c200e
0cc006
ENDCHAR
STARTCHAR ch-489
ENCODING 489
SWIDTH 1000 0
DWIDTH 24 0
BBX 24 24 0 -3
BITMAP
0181c0
0fd180
fc1d80
0c1980
0c1980
0c118c
0d9ffe
fff180
0c2180
0c4180
1c0180
1e0186
1d7fff
3d8340
2d8340
2c0340
6c0620
4c0620
8c0430
0c0c18
0c081c
0c100f
0c200e
0cc006
ENDCHAR
STARTCHAR ch-492
ENCODING 492
SWIDTH 1000 0
DWIDTH 24 0
BBX 24 24 0 -3
BITMAP
01900c
0fdffe
fc1800
0c1800
0c1800
0c1800
0d980c
ffdffe
0c180c
1c180c
1c180c
1e180c
1d980c
3cd80c
2cdffc
2c180c
6c1800
4c1800
8c1800
0c1800
0c1800
0c1806
0c1fff
0c1800
ENDCHAR
STARTCHAR ch-496
ENCODING 496
SWIDTH 1000 0
DWIDTH 24 0
BBX 24 24 0 -3
BITMAP
018200
0fc380
fc0300
0c0300
0c0600
0c0600
0ccc06
ffffff
0c1180
0c2180
0c4180
1e0180
1d9190
1cdd88
3cd984
2c1986
6c3186
4c3183
8c2183
0c4183
0c8180
0c0180
0c0f80
0c0300
ENDCHAR
STARTCHAR ch-507
ENCODING 507
SWIDTH 1000 0
DWIDTH 24 0
BBX 24 24 0 -3
BITMAP
00e100
07f18c
fe01fe
06030c
060218
060518
0649b0
ffe060
0600c0
060180
0e0680
0f18c6
0ec0ff
1e6186
16630c
36068c
2618d8
460030
860060
0600c0
060180
060300
060c00
063000
ENDCHAR
ENDFONT
